<svg width="41" height="41" viewBox="0 0 41 41" fill="none" xmlns="http://www.w3.org/2000/svg">
<circle cx="20.1953" cy="20.2344" r="19" fill="#FF7752" stroke="white" stroke-width="2"/>
<path fill-rule="evenodd" clip-rule="evenodd" d="M16.4359 12.1461L14.4863 14.7456C14.384 14.8819 14.2514 14.9926 14.099 15.0688C13.9466 15.145 13.7785 15.1847 13.6081 15.1847H13.169C12.5285 15.1847 11.9142 15.4391 11.4613 15.8921C11.0083 16.345 10.7539 16.9592 10.7539 17.5998V26.3818C10.7539 27.0223 11.0083 27.6366 11.4613 28.0895C11.9142 28.5424 12.5285 28.7969 13.169 28.7969H27.2203C27.8608 28.7969 28.475 28.5424 28.928 28.0895C29.3809 27.6366 29.6353 27.0223 29.6353 26.3818V17.5998C29.6353 16.9592 29.3809 16.345 28.928 15.8921C28.475 15.4391 27.8608 15.1847 27.2203 15.1847H26.7811C26.6107 15.1847 26.4426 15.145 26.2902 15.0688C26.1378 14.9926 26.0052 14.8819 25.9029 14.7456L23.9533 12.1461C23.8429 11.9989 23.6997 11.8794 23.5351 11.797C23.3705 11.7147 23.1889 11.6719 23.0049 11.6719H17.3844C17.0111 11.6719 16.6598 11.8475 16.4359 12.1461ZM20.1946 16.9411C19.6468 16.9411 19.1044 17.049 18.5983 17.2586C18.0922 17.4683 17.6323 17.7755 17.2449 18.1629C16.8576 18.5503 16.5503 19.0101 16.3407 19.5162C16.131 20.0223 16.0231 20.5648 16.0231 21.1126C16.0231 21.6604 16.131 22.2028 16.3407 22.7089C16.5503 23.215 16.8576 23.6749 17.2449 24.0623C17.6323 24.4496 18.0922 24.7569 18.5983 24.9665C19.1044 25.1762 19.6468 25.2841 20.1946 25.2841C21.301 25.2841 22.362 24.8446 23.1443 24.0623C23.9266 23.28 24.3661 22.2189 24.3661 21.1126C24.3661 20.0062 23.9266 18.9452 23.1443 18.1629C22.362 17.3806 21.301 16.9411 20.1946 16.9411Z" fill="white"/>
</svg>
